#!OML:ASF G:\JayActor3\Patient Classification 1\Patient 1\Session 2\male.ASF
:FULLY-SPECIFIED
:DEGREES
2755
root 37.7521 16.5248 -7.01684 -318.985 -434.514 -43.6127
lowerback -7.48241 4.34151 7.80658
upperback -1.29214 5.15725 -0.866302
thorax 3.61161 2.65621 -4.70307
lowerneck -9.84364 -8.10014 -8.49063
upperneck -2.31661 -10.2166 12.0293
head 1.98471 -4.86928 4.4513
rclavicle -6.69904e-014 3.18055e-015
rhumerus -37.6461 5.2499 -97.2942
rradius 32.8815
rwrist -1.45022
rhand -24.0458 4.26515
rfingers 7.12502
rthumb 2.43317 -25.7007
lclavicle -6.69904e-014 3.18055e-015
lhumerus -46.1247 7.19759 74.0019
lradius 22.0492
lwrist 1.4944
lhand -25.6144 20.7495
lfingers 7.12502
lthumb 0.918201 50.7273
rfemur 7.92953 -9.15564 37.9666
rtibia 16.0129
rfoot -17.5906 2.41049
rtoes 21.4777
lfemur -34.5727 -5.85323 -15.6785
ltibia 43.5176
lfoot -6.0401 4.92066
ltoes -18.3034
2756
root 37.6669 16.5266 -7.01157 -318.744 -434.534 -43.7179
lowerback -7.54687 4.46068 7.90628
upperback -1.33925 5.30777 -0.986948
thorax 3.64021 2.73265 -4.86209
lowerneck -9.75696 -8.26674 -8.75728
upperneck -2.45077 -10.4231 12.3996
head 1.98979 -4.96971 4.59388
rclavicle 3.97569e-015 -3.18055e-014
rhumerus -37.7637 5.55374 -97.6063
rradius 33.5461
rwrist -1.89426
rhand -23.9469 4.20386
rfingers 7.12502
rthumb 2.52868 -25.7609
lclavicle 3.97569e-015 -3.18055e-014
lhumerus -46.4213 7.31789 73.5992
lradius 21.5104
lwrist 1.12742
lhand -24.6219 20.8538
lfingers 7.12502
lthumb 1.87676 50.8253
rfemur 8.2552 -9.09826 37.9837
rtibia 15.7191
rfoot -17.4037 2.3959
rtoes 20.9406
lfemur -34.2611 -5.77099 -15.773
ltibia 41.6611
lfoot -6.10792 4.61667
ltoes -18.1869
2757
root 37.5805 16.5292 -7.00604 -318.441 -434.562 -43.8666
lowerback -7.6292 4.58083 7.99878
upperback -1.39793 5.45862 -1.1082
thorax 3.66716 2.80858 -5.0166
lowerneck -9.67923 -8.435 -9.00542
upperneck -2.56591 -10.6347 12.7595
head 2.00233 -5.07259 4.72914
rclavicle 1.55052e-014 1.59028e-014
rhumerus -37.9068 5.85506 -97.9205
rradius 34.2101
rwrist -2.30185
rhand -23.8308 4.15779
rfingers 7.12502
rthumb 2.64073 -25.8056
lclavicle 1.55052e-014 1.59028e-014
lhumerus -46.7061 7.41251 73.2088
lradius 20.9453
lwrist 0.750368
lhand -23.5597 20.9335
lfingers 7.12502
lthumb 2.90255 50.8935
rfemur 8.57015 -9.03123 38.0042
rtibia 15.4162
rfoot -17.1983 2.37923
rtoes 20.3965
lfemur -33.9538 -5.71468 -15.8175
ltibia 39.8739
lfoot -6.16851 4.32223
ltoes -18.0656
2758
root 37.4931 16.5327 -7.00045 -318.079 -434.601 -44.0579
lowerback -7.72401 4.69959 8.08124
upperback -1.46752 5.6073 -1.23019
thorax 3.68942 2.88265 -5.16584
lowerneck -9.61212 -8.60079 -9.2336
upperneck -2.66671 -10.8456 13.1061
head 2.02022 -5.17504 4.85642
rclavicle 2.38542e-014 7.95139e-015
rhumerus -38.0762 6.14829 -98.2339
rradius 34.8756
rwrist -2.65708
rhand -23.692 4.11645
rfingers 7.12502
rthumb 2.77485 -25.8452
lclavicle 2.38542e-014 7.95139e-015
lhumerus -46.9856 7.51268 72.8063
lradius 20.3649
lwrist 0.354479
lhand -22.4178 20.9737
lfingers 7.12502
lthumb 4.00531 50.9158
rfemur 8.87885 -8.9404 38.0291
rtibia 15.1025
rfoot -16.9773 2.35306
rtoes 19.867
lfemur -33.6531 -5.6825 -15.8154
ltibia 38.1647
lfoot -6.20994 4.04971
ltoes -17.9495
2759
root 37.4046 16.5372 -6.99449 -317.7 -434.656 -44.2452
lowerback -7.83783 4.81365 8.1425
upperback -1.54405 5.74976 -1.3556
thorax 3.71325 2.95307 -5.3063
lowerneck -9.55738 -8.76107 -9.43965
upperneck -2.76334 -11.0507 13.4364
head 2.03969 -5.27482 4.97498
rclavicle -1.98785e-014 -4.13472e-014
rhumerus -38.2622 6.42684 -98.539
rradius 35.5444
rwrist -2.96979
rhand -23.5106 4.0676
rfingers 7.12502
rthumb 2.94999 -25.8917
lclavicle -1.98785e-014 -4.13472e-014
lhumerus -47.2612 7.64585 72.3755
lradius 19.7825
lwrist -0.0581619
lhand -21.2106 20.9957
lfingers 7.12502
lthumb 5.17097 50.9126
rfemur 9.17409 -8.82287 38.0448
rtibia 14.7843
rfoot -16.7443 2.31779
rtoes 19.3686
lfemur -33.3654 -5.67522 -15.7853
ltibia 36.5403
lfoot -6.23281 3.8012
ltoes -17.8448
2760
root 37.3152 16.5425 -6.98882 -317.26 -434.738 -44.4784
lowerback -7.96317 4.92869 8.18145
upperback -1.62773 5.89437 -1.48466
thorax 3.7353 3.02385 -5.43694
lowerneck -9.50315 -8.91468 -9.62277
upperneck -2.86914 -11.2486 13.7534
head 2.05477 -5.37178 5.08655
rclavicle -4.07509e-014 5.08889e-014
rhumerus -38.4667 6.68209 -98.8393
rradius 36.2124
rwrist -3.23563
rhand -23.3181 4.02656
rfingers 7.12502
rthumb 3.13591 -25.9301
lclavicle -4.07509e-014 5.08889e-014
lhumerus -47.5377 7.82302 71.901
lradius 19.2149
lwrist -0.476155
lhand -19.9603 21.024
lfingers 7.12502
lthumb 6.37811 50.908
rfemur 9.4572 -8.64223 38.0628
rtibia 14.4683
rfoot -16.5071 2.25519
rtoes 18.9
lfemur -33.0894 -5.6727 -15.7245
ltibia 35.0084
lfoot -6.24371 3.57092
ltoes -17.7196
2761
root 37.2247 16.5485 -6.98343 -316.802 -434.846 -44.7176
lowerback -8.09634 5.04196 8.19138
upperback -1.71527 6.03844 -1.61873
thorax 3.7559 3.09375 -5.55595
lowerneck -9.4503 -9.06191 -9.79449
upperneck -2.98177 -11.4387 14.0684
head 2.06753 -5.46542 5.19629
rclavicle -7.15625e-015 -1.74931e-014
rhumerus -38.692 6.92571 -99.1428
rradius 36.8793
rwrist -3.44565
rhand -23.1608 3.95241
rfingers 7.12502
rthumb 3.28785 -26.002
lclavicle -7.15625e-015 -1.74931e-014
lhumerus -47.8171 8.05649 71.3724
lradius 18.6728
lwrist -0.895368
lhand -18.6735 21.0366
lfingers 7.12502
lthumb 7.62026 50.8793
rfemur 9.72772 -8.40958 38.0754
rtibia 14.1658
rfoot -16.2726 2.15933
rtoes 18.4368
lfemur -32.8198 -5.68241 -15.6442
ltibia 33.5767
lfoot -6.25573 3.34808
ltoes -17.6224
2762
root 37.1333 16.5551 -6.97866 -316.36 -434.973 -44.942
lowerback -8.22669 5.15228 8.16964
upperback -1.8042 6.18165 -1.75811
thorax 3.77126 3.1626 -5.66295
lowerneck -9.38127 -9.20369 -9.95862
upperneck -3.11549 -11.6222 14.3837
head 2.0714 -5.55712 5.30648
rclavicle 2.88238e-014 7.95139e-015
rhumerus -38.9348 7.14772 -99.4467
rradius 37.5442
rwrist -3.64165
rhand -23.0259 3.85296
rfingers 7.12502
rthumb 3.41813 -26.0994
lclavicle 2.88238e-014 7.95139e-015
lhumerus -48.0985 8.33263 70.7969
lradius 18.1626
lwrist -1.28932
lhand -17.4066 21.0821
lfingers 7.12502
lthumb 8.84299 50.8768
rfemur 9.99099 -8.13316 38.0829
rtibia 13.8863
rfoot -16.0504 2.02197
rtoes 17.9611
lfemur -32.5489 -5.68688 -15.5545
ltibia 32.2549
lfoot -6.273 3.09356
ltoes -17.5648
2763
root 37.0408 16.5617 -6.97456 -315.973 -435.115 -45.1231
lowerback -8.34379 5.25658 8.11781
upperback -1.89134 6.32083 -1.9036
thorax 3.77848 3.22892 -5.76089
lowerneck -9.30416 -9.3442 -10.1161
upperneck -3.25827 -11.8044 14.6934
head 2.07141 -5.64918 5.41447
rclavicle -9.54166e-014 -1.43125e-014
rhumerus -39.1945 7.34716 -99.7542
rradius 38.2016
rwrist -3.83193
rhand -22.928 3.73016
rfingers 7.12502
rthumb 3.51268 -26.2206
lclavicle -9.54166e-014 -1.43125e-014
lhumerus -48.3792 8.65094 70.1711
lradius 17.6844
lwrist -1.66633
lhand -16.1798 21.1458
lfingers 7.12502
lthumb 10.0267 50.8869
rfemur 10.2516 -7.83164 38.0817
rtibia 13.6414
rfoot -15.8455 1.84738
rtoes 17.4437
lfemur -32.2671 -5.67785 -15.4665
ltibia 31.0505
lfoot -6.29039 2.76768
ltoes -17.517
2764
root 36.9474 16.5681 -6.97109 -315.659 -435.261 -45.2501
lowerback -8.43725 5.35237 8.04441
upperback -1.97617 6.45278 -2.05353
thorax 3.77241 3.29111 -5.85419
lowerneck -9.20474 -9.48465 -10.2825
upperneck -3.41611 -11.9865 15.0108
head 2.06558 -5.74251 5.5273
rclavicle -1.0635e-013 1.59028e-014
rhumerus -39.4727 7.52006 -100.06
rradius 38.8485
rwrist -4.03916
rhand -22.8464 3.61185
rfingers 7.12502
rthumb 3.59145 -26.3376
lclavicle -1.0635e-013 1.59028e-014
lhumerus -48.6601 8.99359 69.5082
lradius 17.2363
lwrist -2.02014
lhand -15.0263 21.2119
lfingers 7.12502
lthumb 11.1394 50.8962
rfemur 10.5102 -7.51569 38.0768
rtibia 13.4439
rfoot -15.6642 1.63663
rtoes 16.922
lfemur -31.97 -5.64841 -15.383
ltibia 29.9703
lfoot -6.28694 2.33025
ltoes -17.4973
2765
root 36.8533 16.5741 -6.96816 -315.445 -435.407 -45.2994
lowerback -8.50737 5.43725 7.95119
upperback -2.05783 6.57406 -2.20789
thorax 3.75364 3.34756 -5.94443
lowerneck -9.08475 -9.62653 -10.4593
upperneck -3.58097 -12.171 15.3342
head 2.05689 -5.83808 5.64434
rclavicle 3.57812e-014 6.36111e-015
rhumerus -39.7652 7.65343 -100.356
rradius 39.4818
rwrist -4.272
rhand -22.7386 3.51774
rfingers 7.12502
rthumb 3.6955 -26.43
lclavicle 3.57812e-014 6.36111e-015
lhumerus -48.9375 9.34102 68.8282
lradius 16.82
lwrist -2.34966
lhand -13.9808 21.2787
lfingers 7.12502
lthumb 12.1476 50.906
rfemur 10.7597 -7.18646 38.0694
rtibia 13.3062
rfoot -15.5158 1.39017
rtoes 16.3877
lfemur -31.6586 -5.5928 -15.3131
ltibia 29.0184
lfoot -6.24228 1.75307
ltoes -17.4191
2766
root 36.7583 16.5793 -6.96562 -315.309 -435.552 -45.289
lowerback -8.56067 5.51167 7.84377
upperback -2.13618 6.68401 -2.36469
thorax 3.72612 3.39812 -6.0323
lowerneck -8.95011 -9.77121 -10.6444
upperneck -3.7431 -12.36 15.6563
head 2.04874 -5.93666 5.76232
rclavicle 4.25399e-014 -1.74931e-014
rhumerus -40.0684 7.7549 -100.64
rradius 40.0905
rwrist -4.53328
rhand -22.5924 3.47128
rfingers 7.12502
rthumb 3.83667 -26.4739
lclavicle 4.25399e-014 -1.74931e-014
lhumerus -49.2122 9.69285 68.1355
lradius 16.4345
lwrist -2.67517
lhand -13.059 21.3282
lfingers 7.12502
lthumb 13.0363 50.9008
rfemur 10.996 -6.84929 38.0594
rtibia 13.234
rfoot -15.3974 1.12321
rtoes 15.8433
lfemur -31.3366 -5.50258 -15.2611
ltibia 28.2011
lfoot -6.13164 1.03854
ltoes -17.2765
2767
root 36.6623 16.5837 -6.96283 -315.279 -435.695 -45.1813
lowerback -8.61044 5.5714 7.72266
upperback -2.21372 6.77575 -2.52456
thorax 3.69348 3.43935 -6.11888
lowerneck -8.794 -9.91551 -10.8353
upperneck -3.90416 -12.55 15.9757
head 2.0389 -6.03683 5.88118
rclavicle 8.44835e-014 2.8625e-014
rhumerus -40.3832 7.82847 -100.907
rradius 40.6714
rwrist -4.81208
rhand -22.3792 3.47594
rfingers 7.12502
rthumb 4.04262 -26.4655
lclavicle 8.44835e-014 2.8625e-014
lhumerus -49.4903 10.035 67.45
lradius 16.0878
lwrist -2.99396
lhand -12.2917 21.3776
lfingers 7.12502
lthumb 13.7759 50.9015
rfemur 11.2108 -6.52168 38.036
rtibia 13.2242
rfoot -15.301 0.855467
rtoes 15.3092
lfemur -31.0142 -5.37777 -15.2454
ltibia 27.5257
lfoot -5.93308 0.225388
ltoes -17.0711
